# xmcd CD database file
#
# Track frame offsets:
#	150
#	5666
#	18994
#	33011
#	46792
#	59533
#	75881
#	88002
#	96820
#	111327
#	118454
#	131200
#	140986
#	160084
#	171873
#	190943
#	201030
#
# Disc length: 2978 seconds
#
# Revision: 0
# Processed by: cddbd v1.5.2PL0 Copyright (c) Steve Scherf et al.
# Submitted via: CDex 1.51
#
DISCID=e60ba011
DTITLE=Pepa Streichl Trio - Za dvermi
DYEAR=2007
DGENRE=Blues
TTITLE0=Za dvermi je zena
TTITLE1=Drina
TTITLE2=Blues pro nas dva
TTITLE3=Padesat dva tydnu
TTITLE4=Bile blues
TTITLE5=Den kdy jsem Te ztratil
TTITLE6=Ostravice
TTITLE7=Vcera
TTITLE8=Tluste blues
TTITLE9=Ohen
TTITLE10=Ostrava je cerna zenska
TTITLE11=Bicycle
TTITLE12=Julie, to chtel jsem rict
TTITLE13=Jeste se mi nechce
TTITLE14=Na posledni cestu
TTITLE15=Slova pro Tebe
TTITLE16=Dzbanky
EXTD=YEAR: 2007
EXTT0=
EXTT1=
EXTT2=
EXTT3=
EXTT4=
EXTT5=
EXTT6=
EXTT7=
EXTT8=
EXTT9=
EXTT10=
EXTT11=
EXTT12=
EXTT13=
EXTT14=
EXTT15=
EXTT16=
PLAYORDER=
